<?xml version="1.0" encoding="UTF-8"?>
<svg version="1.1" viewBox="0 0 1084 1032" width="1280" height="1280" xmlns="http://www.w3.org/2000/svg">
<path transform="translate(0)" d="m0 0h1084v1032h-1084z" fill="#FFFFFD"/>
<path transform="translate(293,88)" d="m0 0h16l14 3 12 7 11 11 8 14 8 20 5 22 2 15 1 30-4 4-14 8-10 8-3 5-1 6 3 6 6 2 14-1 2-3 2-6 3-1-1 16-5 35-12 56-2 13v22l2 5 2 1h8l5-3 4-8 7-26 10-41 7-36 5-35 2-16 10-4 28-10 32-10 42-11 27-6 2 1-3 36-6 68-2 52-1 67-1 10-11 8-7 6-15 15-11 9-15 14-11 9-14 13-11 9-10 9-11 9-14 12-11 9-13 11-10 8-16 13-15 11-4 2-3-3-4-8-7-9-6-7-14-11-15-9-19-9-19-6-26-5-21-2-92-4-25-3-15-4-14-7-9-9-5-10-3-12v-28l3-21 6-23 12-36 11-26 10-20 10-18 14-25 11-18 9-13 11-13 9-11 11-13 9-11 11-13 9-11 12-14 4-5 8-7 13-11 15-11 19-12 19-9 13-4z" fill="#FEFEFC"/>
<path transform="translate(294,61)" d="m0 0h25l12 3 16 8 13 10 8 9 12 19 9 20 7 25 3 19 1 10v15l29-10 40-12 59-16 15-4 3-3 9-35 7-16 5-5 4-3h8l5 5 3 7v28l-4 4-6 3-2 8 27-4 61-10 25-3 15-1h23l12 3 6 4 4 5 1 7-5 5-2 1h-6l-6-4h-29l-27 3-41 6-60 11h-3l-10 102-3 37v14l-1 7-1 72-1 31v139l2 28v20l-3 9-3 3-6 1-8-4-4-6-3-16-2-38-1-75 1-56h-2l-1 3-8 7-13 13-8 7-20 18-12 11-15 14-13 11-14 11-13 11-14 11-16 13-10 8-11 9-14 12-4 4 5 26 1 12v11l-2 18-5 21-4 12-9 21-12 21-11 15-13 17-12 13-9 9-11 9-13 10-21 12-15 6-15 3h-20l-12-2-10-4-10-9-3-7v-20l3-16 6-16 9-17 10-14 12-16 11-13 7-8 12-12 2-3h2l2-4 8-7 9-9 8-7 14-12 10-9 22-18 17-14 8-7-4-8-10-14-12-12-14-9-17-8-22-6-26-4-41-3-18-1-39-1-27-2-17-3-16-5-11-6-12-11-7-10-5-12-3-13-1-7v-23l3-27 5-23 8-26 10-27 15-33 10-20 13-23 11-18 12-20 10-14 18-24 12-14 8-10 9-10 12-13 10-9 16-15 11-9 15-11 16-10 16-8 15-6 18-5zm-1 27-16 3-16 6-19 10-15 10-14 11-14 12-6 5-9 11-12 14-11 13-8 10-12 14-9 11-11 13-8 11-12 19-14 25-16 29-12 25-9 24-10 30-6 25-2 16v28l4 15 6 9 7 7 14 7 21 5 19 2 92 4 28 3 23 5 20 7 23 12 11 8 11 9 9 11 5 8 3 5 2 1 19-14 17-14 16-13 14-12 11-9 14-12 10-8 11-10 8-7 14-12 13-12 11-9 16-15 5-4 5-5 8-7 6-4 1-10 1-67 2-52 9-100-1-5-24 5-39 10-36 11-26 9-14 5-2 7-4 32-5 30-9 40-11 43-4 9-4 4-2 1h-8l-3-3-1-3v-22l4-23 9-40 5-32 2-19v-6l-4 2-2 7-1 1-14 1-7-3-2-7 3-8 8-7 20-12 1-2-1-30-3-20-4-17-8-20-6-11-9-10-7-6-12-6-11-2z" fill="#2B3E3B"/>
<path transform="translate(932,216)" d="m0 0h7l5 3 2 6v8l-6 23-6 21-10 47-9 53-6 45-4 41-1 15v56l3 22 4 15 1 5 5-2 7-6 8-11 9-16 15-30 13-28 16-33 10-20 9-16 7-6 10-22 8-13 7-9 7-7 9-4 7 1 5 5 2 8-4 7-6 6 1 6 10 13 6 12 3 9 2 14-1 23-4 20-5 16-8 16-7 10-8 9-11 7-6 2h-13l-8-4-7-7-6-12-3-16v-24l-6 12-8 19-10 23-8 16-10 19-11 16-9 10-8 5-9 1-10-4-7-8-6-12-5-19-3-20-2-28v-48l1-20-11 6-25 14-28 17-14 9-27 18-4 5-6 39-9 45-11 44-11 35-8 21-9 20-10 19-11 17-7 9-11 12-9 9-17 12-15 7-14 4-14 1-14-2-12-5-11-8-8-10-5-11-3-10-1-9v-10l3-19 7-21 12-24 12-19 9-12 8-11 13-16 7-8 18-20 29-29 8-7 10-9 43-33 7-6 2-5 7-60 4-43 2-35 1-45-5 5-9 15-8 13-27 45-15 24-12 19-13 19-9 12-9 11-8 8-10 6-5 2h-11l-7-4-6-7-4-9-2-11v-13l3-21 6-24 8-20 7-12 8-6h11l4 4v9l-5 19-9 31-4 24-1 16 11-9 8-8 9-11 15-20 21-32 16-26 9-15 17-29 14-24 7-11 5-4 3-1h10l5 8 3 12 2 26v69l-2 34-4 50 18-10 48-28 26-15 10-7 5-3 3-20 4-32 8-48 8-36 9-32 7-18 6-8z" fill="#2B3E3B"/>
<path transform="translate(474)" d="m0 0h144l35 7 44 11 28 10 26 11 29 14 26 15 17 11 20 14 16 13 11 9 11 10 8 7 13 12 11 11 9 11 11 13 9 12-1 2h-11l-13 5-7 4-11-13-11-12-9-10-16-15-13-12-14-11-11-9-19-13-20-13-19-11-15-8-37-16-22-8-28-8-42-9-27-4-39-2h-23l-39 2-33 5-43 10-27 8-18 7-6-1-12-9-13-6-6-2 1-2 32-13 21-7 27-8 21-5z" fill="#2B3E3B"/>
<path transform="translate(737,528)" d="m0 0h2l-2 17-7 35-12 48-10 34-11 32-9 20-13 21-14 17-7 8-11 9-16 8-14 3h-9l-13-4-8-7-6-9-3-10-1-13 2-16 7-21 8-17 12-19 8-11 14-19 9-10 7-8 9-10 14-15 16-15 11-9 15-14 8-7 13-11z" fill="#FFFFFD"/>
<path transform="translate(316,620)" d="m0 0 4 1 1 8v40l-4 19-6 16-10 21-12 19-9 11-11 13-7 8-10 9-17 13-13 8-16 8-12 4-6 1h-20l-6-3-3-4-1-4v-9l4-14 8-16 8-13 10-14 13-16 9-11 27-27 8-7 17-16 11-10 11-9 12-11 12-9z" fill="#FEFEFC"/>
<path transform="translate(1041,557)" d="m0 0 1 3-8 43-7 27-8 26-9 24-13 29-14 28-12 20-16 24-14 19-8 10-11 13-11 12-25 25-8 7-14 12-16 13-11 8-4-2-13-18-2-4 8-7 9-7 10-8 11-9 12-11 25-25 7-8 11-13 12-16 12-17 12-19 9-16 14-27 11-26 9-24 8-27 8-36 3-19 1-1h14l14-2z" fill="#2B3E3B"/>
<path transform="translate(49,546)" d="m0 0 7 1 22 3 4 2 6 36 6 27 10 33 9 24 11 25 17 34-5 9-5 8-6 12-5-5-10-17-14-26-12-27-9-24-7-21-8-30-6-29z" fill="#2B3E3B"/>
<path transform="translate(252,129)" d="m0 0 2 1-11 9-15 13-15 14-13 13-9 11-12 14-14 19-14 20-15 26-14 27-11 26-7 18-8 25-8 32-6 35-3 29-1 18-7-1-8-4-5-5-2-6v-28l3-20 6-25 10-30 11-24 8-15 12-21 14-25 11-18 7-10 11-12 8-10 13-15 7-9 12-14 13-16 14-15 11-9 20-15z" fill="#2B3E3B"/>
<path transform="translate(969,231)" d="m0 0 3 3 8 13 6 11 14 29 12 28 9 27-1 5-10 13-10 17h-2l-11-36-8-21-13-30-6-11v-12l6-19z" fill="#2B3E3B"/>
<path transform="translate(531,948)" d="m0 0h14l9 3 10 9 4 8 1 3v11l-3 9-6 8-10 6-9 2h-7l-10-3-6-4-7-8-3-7-1-10 2-9 5-8 8-7z" fill="#2B3E3B"/>
<path transform="translate(669,931)" d="m0 0 10 1 6 4 4 8 1 3v10l-3 6-2 2 1 5 13 11v2l-10 2-10-9-5-4-13 3-1 4 3 13-9 3-2-3-11-42-2-8v-4l13-4z" fill="#2B3E3B"/>
<path transform="translate(1042,405)" d="m0 0 4 2 5 10 2 12v16l-3 19-5 17-8 16-7 8-3 3-5-1-2-7v-23l5-23 11-32z" fill="#FFFFFD"/>
<path transform="translate(237,851)" d="m0 0 7 1 13 11 19 14 1 2-11 16-6 8-4-2-11-7-13-11-11-9-11-10-2-1v-2l20-6z" fill="#2B3E3B"/>
<path transform="translate(786,880)" d="m0 0 5 1 1 6-18 10-7 4 1 5 4 8 4-1 19-10 5 1 1 6-16 9-5 3h-2l3 7 3 6v2l11-6 16-8 4-1 2 6v2l-22 12-14 8-6-9-13-23-9-16-1-2 4-4 25-14z" fill="#2B3E3B"/>
<path transform="translate(535,956)" d="m0 0h7l8 3 5 5 4 7v12l-4 7-5 5-7 3h-9l-8-3-7-8-2-6v-8l3-7 4-5 7-4z" fill="#FFFFFD"/>
<path transform="translate(304,884)" d="m0 0h9l8 3 10 8 5 7-5 6-4-2-8-8-5-3h-7l-2 2 1 6 11 13 4 9-1 9-5 6-6 3h-8l-10-4-8-6-7-10 1-5 3-4 4 2 6 9 1 3 5 2 4 2h6l3-3-1-6-7-8-6-8-2-4v-9l4-6 4-3z" fill="#2B3E3B"/>
<path transform="translate(399,925)" d="m0 0 10 2 32 9 3 2-1 7-9-1-10-3-2 11-10 34-1 2-9-1 1-8 11-41-16-4v-7z" fill="#2B3E3B"/>
<path transform="translate(665,940)" d="m0 0h9l5 4 2 5-1 9-8 5-13 4-3-1-5-17v-5z" fill="#FFFFFD"/>
</svg>
